<?xml version="1.0" encoding="UTF-8" standalone="no"?>
<svg xmlns:rdf="http://www.w3.org/1999/02/22-rdf-syntax-ns#" xmlns="http://www.w3.org/2000/svg" height="4030pt" width="2734.8pt" version="1.1" xmlns:cc="http://creativecommons.org/ns#" xmlns:xlink="http://www.w3.org/1999/xlink" viewBox="0 0 2734.833 4030" xmlns:dc="http://purl.org/dc/elements/1.1/">
<defs>
<filter id="b" style="color-interpolation-filters:sRGB" height="1.1113" width="1.0836" y="-.055657" x="-.041777">
<feGaussianBlur stdDeviation="40.314917"/>
</filter>
<clipPath id="c" clipPathUnits="userSpaceOnUse">
<path d="m544.11 364.31c-11.403 0.0689-22.794 1.0906-33.859 2.6781-4.55 2.3-6.35 8.0191-3.5 12.339 17.1 90.69 24.71 182.71 33.73 274.26 7.93 97.83 19.07 195.65 29.5 293.41-4.76-2.79 1.54 3.2694 0 6.0594 5.13 65.54 7.3609 131.27 11.011 196.9 3.9 38.62-0.06 77.34-3.2703 115.9-4.39 72.19-10.42 146.2-14.82 219.07-11.58 18.61-6.8903 41.49-7.8703 62.13 0.37 19.55-3.4094 42.351-1.9594 60.061-8.86 111.2-16.71 223.17-30.18 334.17-3.95 46.7-13.481 97.809-15.841 146.44 4.19-1.64 7.4006 2.9109 9.1906-1.6391 78.27-24.43 155.66-54.31 237.6-64.25 67.07-9.35 137.26-11.011 203.17-13.691 27.82 0.28 55.48-2.3006 83.12-4.9906 57.02-7.26 108.48-34.499 164.32-46.159 52.32-13.79 130.57-24.471 176.76 21.259 5.79 5.04 3.0312 9.03 9.0312 10.55 12.15 17.03 22.979 35.271 33.309 53.631 18.95 32.14 34.69 77.479 77.17 83.039 46.45 4.81 90.78-14.42 131.83-33.92 54.24-28.95 111.24-54.399 168.69-75.319 35.42-10.54 71.359-20.63 108.39-23.72 59.92-4.22 126.88 0.52 173.22 43.2 16.36 10.64 24.25 33.87 37.13 49.35 10.28 15.03 37.48 30.599 53.4 30.109 15.5 4.14 35.31 4.2503 52.35 6.0203 97.42 3.34 195.42-4.76 292.87 3.25 30.11 0.99 57.991 22.24 78.791 38.27 6.55 8.25 16.679 11.69 24.389 18.77 43.16 17.8 82.14-12.211 122.74-23.991 2-1.59 6.749 2.6503 4.639-1.5797 35.66-9.7 74.641-10.201 109.42 2.5391 20.87 4.18 39.509 15.681 59.179 22.691 31.68 15.89 64.532 31.049 98.532 41.609 34.49 6.15 69.84 8.4503 104.85 6.3203 6.73 0.72 16.199-3.8997 13.959-12.13-2.11-30.3-14.07-58.771-23.77-87.291-14.12-37.85-28.89-78.75-46.41-113.2-4.54-12.19-9.49-24.4-15.87-35.73-19.63-62.15-40.409-124.19-59.309-186.74-28.73-89.44-56.711-179.23-86.711-268.2-28.97-90.52-56.74-181.3-89.26-270.62-33.29-94.42-72.4-188.22-116.57-277.2-16.31-29.51-30.701-60.291-50.391-87.791-4.83-7.55-13.579-12.67-22.459-13.65-21.06-0.82-42.131-3.5697-62.341-9.5797 0.43-1.73-3.088 0.36064-4.218-0.90936-99.98-30.44-181.23-99.871-275.8-142.01-34.52-16.01-69.241-33.569-107.09-39.989-76.89-9.66-154.79-1.6312-232.02-7.0812-58.35 0.4-116.8-13.07-170.12-35.3-101.24-44.75-199.73-97.379-304.53-133.99-30.899-10.506-64.815-16.681-97.141-16.702-7.4596-0.005-14.835 0.3175-22.069 0.99063-35.58 2.79-72.34 6.5203-104.88 22.22-12.52 4.51-24.691 10.67-38.161 11.73-29.69 6.79-59.469-8.3988-80.789-28.119-20.54-16.3-41.041-35.421-68.061-39.881-6.72-0.87188-13.422-1.245-20.109-1.2625-28.98-0.076-57.702 6.536-86.57 8.2828-48.33 7.69-97.92 11.15-146.42 3-69.38-11.41-128.16-51.91-187.78-86.26-21.86-13.17-47-17.63-72.09-17.48z" fill="#fff"/>
</clipPath>
<linearGradient id="a" y2="2297" gradientUnits="userSpaceOnUse" x2="520.78" gradientTransform="translate(.60238 -3.5473)" y1="2297" x1="399.22">
<stop stop-color="#282828" offset="0"/>
<stop stop-color="#878787" offset=".5"/>
<stop stop-color="#282828" offset="1"/>
</linearGradient>
</defs>
<g transform="translate(-400.6 -263.45)">
<g clip-path="url(#c)">
<path d="m544.11 364.31c-11.403 0.0689-22.794 1.0906-33.859 2.6781-4.55 2.3-6.35 8.0191-3.5 12.339 17.1 90.69 24.71 182.71 33.73 274.26 7.93 97.83 19.07 195.65 29.5 293.41-4.76-2.79 1.54 3.2694 0 6.0594 5.13 65.54 7.361 131.27 11.011 196.9 3.9 38.62-0.06 77.34-3.2703 115.9-4.39 72.19-10.42 146.2-14.82 219.07-11.58 18.61-6.8903 41.49-7.8703 62.13 0.37 19.55-3.4094 42.351-1.9594 60.061-8.86 111.2-16.71 223.17-30.18 334.17-3.95 46.7-13.481 97.809-15.841 146.44 4.19-1.64 7.4006 2.9109 9.1906-1.6391 78.27-24.43 155.66-54.31 237.6-64.25 67.07-9.35 137.26-11.011 203.17-13.691 27.82 0.28 55.48-2.3006 83.12-4.9906 57.02-7.26 108.48-34.499 164.32-46.159 52.32-13.79 130.57-24.471 176.76 21.259 5.79 5.04 3.0312 9.03 9.0312 10.55 12.15 17.03 22.979 35.271 33.309 53.631 18.95 32.14 34.69 77.479 77.17 83.039 46.45 4.81 90.78-14.42 131.83-33.92 54.24-28.95 111.24-54.399 168.69-75.319 35.42-10.54 71.359-20.63 108.39-23.72 59.92-4.22 126.88 0.52 173.22 43.2 16.36 10.64 24.25 33.87 37.13 49.35 10.28 15.03 37.48 30.599 53.4 30.109 15.5 4.14 35.31 4.2503 52.35 6.0203 97.42 3.34 195.42-4.76 292.87 3.25 30.11 0.99 57.991 22.24 78.791 38.27 6.55 8.25 16.679 11.69 24.389 18.77 43.16 17.8 82.141-12.211 122.74-23.991 2-1.59 6.7491 2.6503 4.6391-1.5797 35.66-9.7 74.64-10.201 109.42 2.5391 20.87 4.18 39.51 15.681 59.18 22.691 31.68 15.89 64.531 31.049 98.531 41.609 34.49 6.15 69.84 8.4503 104.85 6.3203 6.73 0.72 16.199-3.8997 13.959-12.13-2.11-30.3-14.07-58.771-23.77-87.291-14.12-37.85-28.889-78.75-46.409-113.2-4.54-12.19-9.4903-24.4-15.87-35.73-19.63-62.15-40.409-124.19-59.309-186.74-28.73-89.44-56.711-179.23-86.711-268.2-28.97-90.52-56.739-181.3-89.259-270.62-33.29-94.42-72.4-188.22-116.57-277.2-16.31-29.51-30.701-60.291-50.391-87.791-4.83-7.55-13.579-12.67-22.459-13.65-21.06-0.82-42.131-3.5697-62.341-9.5797 0.43-1.73-3.0888 0.36064-4.2188-0.90936-99.98-30.44-181.23-99.871-275.8-142.01-34.52-16.01-69.241-33.569-107.09-39.989-76.89-9.66-154.79-1.6312-232.02-7.0812-58.35 0.4-116.8-13.07-170.12-35.3-101.24-44.75-199.73-97.379-304.53-133.99-30.899-10.506-64.815-16.681-97.141-16.702-7.4596-0.005-14.835 0.3175-22.069 0.99063-35.58 2.79-72.34 6.5203-104.88 22.22-12.52 4.51-24.691 10.67-38.161 11.73-29.69 6.79-59.469-8.3988-80.789-28.119-20.54-16.3-41.041-35.421-68.061-39.881-6.72-0.87188-13.422-1.245-20.109-1.2625-28.98-0.076-57.702 6.536-86.57 8.2828-48.33 7.69-97.92 11.15-146.42 3-69.38-11.41-128.16-51.91-187.78-86.26-21.86-13.17-47-17.63-72.09-17.48z" fill="#f9f9f9"/>
<path fill="#010101" d="m1037 456.65c-28.98-0.076-57.702 6.536-86.57 8.2828-10.47 1.77-3.81 14.77-5.4 21.97-2.7 79.84-2.9694 159.72-1.2094 239.59-29.09 11.26-58.2 22.529-87.12 34.219-59.88 26.22-115.15 61.59-169.75 97.25-41.06 28.88-83.371 57.39-116.99 95.1 5.13 65.54 7.3609 131.27 11.011 196.9 3.9 38.62-0.06 77.34-3.2703 115.9 0.93 3.92 4.2097 0.021 6.0297-1.1688 39.95-35.07 83.11-66.32 127.58-95.37 65.32-42.22 131.86-84.431 204.91-112.06 13.01-3.87 42.259-15.939 43.239 6.3109 15.21 95.47 18.75 192.33 24.83 288.68-43.12 21.53-88.059 39.471-131.36 60.691-82.16 39.76-160.65 87.299-233.04 142.96-21.92 17.53-43.969 34.94-66.839 51.22-8.86 111.2-16.71 223.17-30.18 334.17 0.24 1.38-0.6209 4.0088 1.7391 3.4688 44.73-42.75 96.72-77 148.28-110.85 86.83-56.29 179.44-105.08 278.15-136.86 12.47-2.51 26.911-10.07 38.961-3.5203-4.35 105.5-16.201 210.8-35.661 314.63 0.66 0 1.99-0.01 2.65-0.01 27.82 0.28 55.48-2.3006 83.12-4.9906 57.02-7.26 108.48-34.499 164.32-46.159 52.32-13.79 130.57-24.471 176.76 21.259 5.79 5.04 3.0312 9.03 9.0312 10.55 0.95-0.57 2.1294-1.0197 2.5594-2.1297 24.19-98.88 37.781-200.31 42.691-301.98-0.09-11.52 15.909-10.719 23.669-9.1594 132.49 21.21 255.34 77.349 379.92 124.44 23.75-107.38 14.28-218.81 16.8-327.92 106.44 38.53 210.32 83.83 316.23 123.82 26.07 10.04 52.971 17.791 79.891 25.211-2.66-100.64-14.751-200.69-22.841-300.98-0.05-5.23-0.95-10.829 1.3-15.689 27.99-3.9 55.861 4.6691 82.841 11.289 74.97 16.69 151.69 27.311 228.61 26.341 18.3 0.04 38.141-4.2403 55.561 2.6797 17.63 99.76 26.18 200.84 36.17 301.57-1.52 11.35 12.479 6.4006 18.569 5.9906 35.7-7.79 70.1-20.691 104.07-34.011 54.44-20.8 101.98-55.819 146.75-92.489-28.97-90.52-56.739-181.3-89.259-270.62-38.42 20.48-76.321 42.53-116.91 58.68-26.44 10.53-53.939 23.18-83.069 19.65-7.3-0.43-10.371-8.3006-11.961-14.391-26.06-96.62-25.319-197.9-45.039-295.59-12.49-11.55-32.011-0.75-47.041-1.7-95.66-1.65-190.25-18.67-283.49-39.08-11.16-0.49-32.9-10.51-37.95 4.7797 10.13 101.18 26.561 201.86 34.291 303.28-8.23 0.46-16.209-2.1894-24.009-4.4094-60.15-19.27-118.87-42.65-177.88-65.1-60.89-22.71-120.71-49.301-184.28-63.861-3.69 0.32-11.13-3.1991-11.77 2.2109 1.69 100.42 30.37 200.64 18.95 301.19-138.9-39.1-273.02-98.899-416.59-120.69 8.59 105.92 18.94 212.66 9.7703 318.84-41.9 1.38-83.26-6.7594-125-8.7094-75.47-2.84-151.82-2.9806-226.47 10.059-21.29 3.38-41.051 16.66-63.091 13.78-13.36-1.65-18.179-16.7-20.409-27.93-7.06-37.07-3.92-74.99-5.4-112.48-0.36-58.35-3.7903-116.66-4.0703-174.95 105.07-27.39 214.77-40.16 323.28-31.33 34.96 1.87 70.81 9.7894 105.17 6.6094 3.46-99.34-19-197.95-25.6-297.05-2.91-9.22 9.0497-5.9994 13.73-5.9094 130.79 16.4 255.22 61.85 380.51 100.53 6.23-0.22 23.259 10.96 21.269-3.1203-1.68-97.9-25.999-194.22-24.589-292.27 12-0.9 23.12 4.5303 34.63 7.0203 116.67 35.37 227.85 87.02 345.42 119.63 6.17 0.45 22.16 7.381 18.6-4.639-7.23-91.22-12.02-182.75-9.8703-274.18-76.89-9.66-154.79-1.6312-232.02-7.0812-58.35 0.4-116.8-13.07-170.12-35.3 0.48 58.54 4.7312 117.13 2.8312 175.62-19.85-1.34-39.351-9.07-58.811-14.05-90.8-27.73-180.61-59.019-273.09-80.939-25.58-4.6-51.461-14.23-77.631-11.05 0.47 91.94 11.081 183.5 21.931 274.7 0.8 10.7 8.7597 31.409-8.3703 32.169-62.89-2.07-125.62-11.34-188.68-8.5297-70.89 1.66-140.8 14.68-210.53 26.42-14.4-17.76-14.48-42.81-19-64.43-7.86-80.18-14.2-161.32-7.85-241.72 10.94-15.26 32.511-17.03 49.281-22.03 118.42-21.33 239.87-17.71 359.04-4.9797-3.36-70.26-3.0291-140.92 3.9109-210.98-5.62-0.08-11.21 0.1-16.77 0.1-35.58 2.79-72.34 6.5203-104.88 22.22-12.52 4.51-24.691 10.67-38.161 11.73-29.69 6.79-59.469-8.3988-80.789-28.119-20.54-16.3-41.041-35.421-68.061-39.881-6.72-0.87188-13.422-1.245-20.109-1.2625zm1525 410.3c-2.25 46.05-1.29 92.921 6.35 138.54 2.16 11.04 15.421 11.56 24.331 9.35 35.37-7.46 69.579-19.5 103.57-31.65 2.61-0.42 1.2006-3.5203 0.9406-5.2203-16.31-29.51-30.701-60.291-50.391-87.791-4.83-7.55-13.579-12.67-22.459-13.65-21.06-0.82-42.131-3.5697-62.341-9.5797zm-305.5 763.45c-9.29 101.17-8.38 204.52-35.95 303.2-2.43 7.23-3.9706 18.639-14.191 17.859-21.58 1.02-41.86-8.3688-62.03-14.719-100.46-36.78-195.32-86.911-294.66-126.41-2.42-0.89-6.8006-2.5791-6.9906 1.5109-11.77 69.2-25.599 138.24-46.359 205.39 1.63-0.27 3.2703-0.5991 4.9203-0.9391 35.42-10.54 71.359-20.63 108.39-23.72 59.92-4.22 126.88 0.52 173.22 43.2 16.36 10.64 24.25 33.87 37.13 49.35 10.28 15.03 37.48 30.599 53.4 30.109 18-49.26 32.421-99.819 43.861-150.99 46.84 7.45 92.97 19.53 140.1 25.5 72.84 8.44 147.26 13.069 219.89 0.6094 11.99-2.87 31.511-10.649 38.611 3.4406-2.84 53.32-12.91 106.13-26.37 157.77-2.12 5.65 6.3303 6.6409 7.9203 11.211 6.55 8.25 16.679 11.69 24.389 18.77 43.16 17.8 82.141-12.211 122.74-23.991 2-1.59 6.7491 2.6503 4.6391-1.5797 35.66-9.7 74.64-10.201 109.42 2.5391 20.87 4.18 39.51 15.681 59.18 22.691 53.35-32.06 100-74.13 147.1-114.6 2.12-16.2-1.2391-33.531 0.061-50.091-4.54-12.19-9.4903-24.4-15.87-35.73-19.63-62.15-40.409-124.19-59.309-186.74-59.42 46.47-118.39 95.53-186.71 129.05-54.2 24.02-109.6 46.879-167.71 59.369-13.92 5.8-8.8203-11.819-8.2203-19.369 8.66-97.79 14.881-196.77 3.3406-294.51-13.21-6.13-31.211-4.42-46.381-5.55-68.54 3.94-137.79 4.2-205.31-9.75-41.01-6.07-80.83-20.49-122.25-22.88z"/>
<path opacity=".325" d="m939.2 469.19c-17.315 2.9097-34.669 6.9983-52.329 6.0502-19.216 2.5876-39.053 0.3241-57.981 2.2271-2.6088 0.26951-5.92 0.76814-4.7969 4.2812 2.8312 11.734 9.4317 22.233 14.004 33.363 7.0276 16.358 12.944 33.727 24.662 47.432 5.9945 4.4043 12.172 10.063 13.318 17.812 6.5157 6.7608 11.931 14.347 16.553 22.482 7.1469 11.194 17.883 19.257 25.268 30.281 9.9888 11.757 20.82 22.912 28.775 36.229 6.3554 8.5354 15.649 14.769 19.648 24.947 3.9102 6.2186 10.217 10.335 14.142 16.639 11.4 14.434 20.312 30.565 31.227 45.334 6.794 10.549 12.348 21.74 19.932 31.77 5.6001 9.675 9.9937 19.97 16.57 29.109 13.677 21.018 23.463 44.418 37.542 65.106 5.3292 5.2504 7.9673 12.328 9.2448 19.471 6.1982 15.668 14.398 30.74 18.111 47.373 1.5173 7.5324 6.0354 13.831 8.5313 20.928 1.7129 7.5942 1.0303 15.708 4.26 22.913 3.5678 21.873 5.3104 44.026 4.9841 66.181 1.4932 12.562 4.3263 25.137 3.6524 37.927 1.4258 63.193-0.7788 126.51 3.3657 189.6-0.8143 14.904 1.16 29.443 3.9311 44.007 1.6667 18.332 1.5091 36.963 3.8555 55.113-0.781 6.6892 6.0226 11.6 5.0469 18.457 0.1852 9.4696-1.1811 19.125 2.4023 28.15 1.278 4.6787 0.1674 9.8769 1.1426 14.346 7.4785 11.321 3.7509 25.757 4.7266 38.023 7.1325 7.82 6.1434 19.273 4.6562 28.852 2.9879 9.3955 10.371 17.578 9.4942 28.01 1.6035 8.7185 7.0951 16.733 6.8828 25.982 0.3552 8.4877 6.2556 14.942 8.2851 22.924 2.4879 5.9383 7.5468 10.403 8.8594 16.938 2.8862 9.9944 4.6963 20.245 10.126 29.288 8.45 20.389 14.988 41.804 24.835 61.473 7.2586 10.201 9.3556 22.827 14.752 33.962 12.082 29.22 23.351 58.757 35.321 88.015 2.1827 7.2328 5.0975 13.98 8.1702 20.824 2.1159 7.9024 9.6327 13.514 10.027 22.206 1.6192 11.018 10.173 19.509 12.19 30.494 1.7615 6.5102 5.8304 12.138 9.1269 17.701 2.0866 9.9122-0.075 20.232 2.0078 30.068 7.5479 0.9272 14.906 4.8681 19.158 11.283 33.344 10.48 60.587 35.827 76.906 66.342 18.727 29.075 31.684 61.642 52.291 89.494 7.9961 9.5791 19.928 17.282 32.797 15.738 44.839 0.8354 85.698-21.123 124.94-40.347 13.402-6.7432 27.344-12.518 40.035-20.594 0.394-9.0137 6.7933-16.75 14.941-20.129 0.7098-16.365 1.3131-33.093-4.6875-48.623-3.1305-11.595-6.7817-23.184-6.8108-35.31-1.2349-11.538-1.2126-25.245-10.068-33.884-10.267-6.3559-11.003-19.634-17.343-28.892-8.1027-16.369-20.946-30.108-28.127-46.974-1.8392-7.1758-10.469-9.9461-12.795-17.084-6.1885-13.054-13.764-25.311-23.342-36.076-5.6265-6.1149-9.6709-13.529-12.173-21.325-5.4205-7.6658-12.025-14.91-15.682-23.539-7.8845-4.4646-13.397-12.446-14.75-21.387-3.9648-8.2813-10.405-15.168-13.551-23.91-7.0564-12.053-16.572-22.464-23.545-34.583-5.9841-8.5775-10.651-18.071-15.248-27.339-5.3744-4.6302-9.7856-10.225-12.375-16.822-8.5658-14.709-17.146-29.558-28.039-42.672-5.5676-8.325-4.1831-19.778-11.885-26.963-9.62-7.5656-7.6916-21.175-13.225-31.039-3.426-7.1286 0.3247-15.504-4.4238-22.178-6.6897-11.132-8.7397-24.225-12.48-36.5-2.5016-8.8705-2.7542-18.34-3.198-27.29-7.4259-14.436-8.0547-31.153-7.3143-47.044-8.1108-13.037-9.4398-28.71-10.451-43.619-2.1176-8.8631-7.8093-16.824-6.9401-26.301-0.3013-10.979-2.7306-21.553-3.7533-32.467-5.5941-28.7-11.909-57.44-16.71-86.378-0.999-11.519-8.749-21.146-8.9536-32.862-0.6985-6.8767-7.6412-11.906-7.4903-19.219-3.342-11.043-4.6443-22.658-10.43-32.824-2.3052-8.0074-6.6271-15.046-11.176-21.883-3.9328-9.1197-1.7735-19.86-7.2928-28.463-5.6969-16.641-14.547-32.266-19.446-49.195-0.581-7.8364-2.8009-15.335-6.9321-22.012-9.273-19.854-16.292-40.665-26.182-60.214-5.7003-14.233-11.575-28.424-19.389-41.641-3.7189-6.7787-4.7679-15.049-9.1153-21.246-4.8722-4.2029-8.42-9.7757-9.7128-16.061-4.8225-9.1478-10.507-17.87-15.459-26.908-9.358-12.888-15.795-27.476-24.046-41.043-10.068-18.333-21.63-35.831-31.929-54.061-10.958-17.475-21.763-35.161-30.28-53.941-13.774-21.013-26.97-42.259-41.443-62.744-4.3009-10.457-13.116-18.08-20.835-25.972-6.6139-10.011-10.979-21.69-20.311-29.678-5.7921-5.8233-10.37-12.95-16.002-18.729-7.3476-5.2909-12.676-12.92-18.658-19.541-4.4015-7.4592-13.227-10.358-17.621-17.854-9.0614-12.116-15.277-27.809-29.773-34.472-4.2777-2.6773-8.9219-5.6571-14.2-5.3145zm376.27 33.074c-24.368 2.077-49.167 4.0893-71.689 14.539-24.451 10.062-49.886 19.359-76.59 20.209 5.5641 17.037 15.763 32.82 17.422 51.049 5.7399 18.416 16.763 35.004 29.75 48.965 6.4126 3.2768 9.7821 10.072 14.717 14.699 12.473 7.7688 20.064 21.819 33.728 27.709 6.8922 4.0008 12.457 9.7925 20.08 12.621 12.498 6.5144 22.746 16.491 35.429 22.715 18.03 9.6663 33.67 22.995 49.434 35.871 8.2078 6.806 13.638 17.279 24.43 20.527 8.2343 4.7023 10.895 14.393 14.217 22.438 6.4287 8.251 13.272 16.465 17.393 26.119 5.4669 5.6397 11.492 11.284 13.501 19.161 14.179 30.764 32.035 59.74 50.872 87.839 6.9653 8.5856 12.27 18.31 20.164 26.158 2.8477 4.0333 9.1394 1.1717 12.984 4.2266 9.1452 4.7924 15.229 15.509 13.277 25.852 7.4544 6.2365 13.533 13.943 18.012 22.481 9.565 11.358 22.291 19.962 31.406 31.771 6.8554 4.9169 11.809 11.98 14.598 19.821 4.597 6.4438 7.2382 14.299 12.013 20.438 8.5578 8.3477 11.807 20.23 18.191 30.072 12.841 23.137 21.981 48.098 34.096 71.566 2.9605 10.1 6.5473 20.059 12.347 28.868 6.4883 14.106 13.633 27.864 18.936 42.471 4.9972 11.598 13.677 21.417 16.471 33.998 3.3523 10.291 8.7708 19.893 12.533 30.1 2.6236 7.8621 9.6143 13.884 9.5996 22.588-0.1487 5.8232 3.83 10.149 6.6391 14.82 7.8071 13.93 13.426 28.939 19.005 43.811 4.5328 5.9609 10.503 11.202 11.947 18.965 2.8432 13.155 11.626 23.901 15.902 36.59 5.5689 16.301 14.462 31.232 22.424 46.47 5.6557 8.9876 11.111 18.047 15.195 27.886 6.0181 9.722 13.326 18.805 19.258 28.708 5.0125 7.6047 10.894 14.694 14.787 22.945 4.7647 5.18 8.3678 11.117 11.469 17.471 5.5549 8.6791 12.222 16.65 16.52 26.132 3.3804 6.7723 6.693 13.432 11.633 19.149 4.2157 7.7346 6.4109 16.504 12.052 23.438 6.3633 11.12 9.6937 23.954 18.469 33.48 3.8325 4.9516 4.8441 11.368 6.5781 17.022 4.2062 4.2094 9.9613 7.4748 11.207 13.838 4.7527 9.2184 11.093 17.52 15.019 27.193 7.4321 14.35 17.616 26.994 25.279 41.28 9.9114 16.341 19.526 32.877 29.012 49.431 8.4344 10.507 11.942 23.731 19.542 34.718 7.4568 12.839 13.326 26.522 20.376 39.553 6.3874 15.103 2.7673 32.028 5.8535 47.522 2.7086 6.6352 6.5219 12.91 8.6621 19.699 4.1928 3.2177 3.8388 8.8992 1.3691 13.041-2.4504 3.3781-1.123 7.4408 2.3575 9.5098 5.3709 5.6746 12.64 9.1457 16.536 16.217 7.5111 10.555 16.451 20.035 22.394 31.664 10.083 16.884 19.346 36.21 36.77 46.639 21.846 10.137 46.619 7.582 70.094 9.4864 34.453 1.402 69.013 2.9047 103.45 0.7851 2.6194-16.206-5.4321-31.428-8.5902-47.002-2.7643-10.621-8.5635-20.057-11.917-30.493-4.2504-9.1935-10.082-17.449-15.255-26.041-4.5234-5.7677-9.8547-10.961-12.333-18.068-3.272-8.2651-7.4996-16.226-13.684-22.625-7.7076-12.604-15.111-25.47-24.016-37.253-6.8642-12.874-14.922-25.066-23.762-36.632-3.2845-6.7075-7.1014-13.086-12.168-18.568-3.9853-6.8824-6.9058-14.498-13.148-19.774-6.7147-7.4931-8.5284-17.735-14.634-25.618-3.7374-5.8197-4.8779-13.319-11.304-17.082-6.371-4.4132-12.357-10.238-13.555-18.227-5.1452-12.644-14.163-23.19-20.457-35.29-10.398-15.646-21.064-31.193-29.862-47.832-8.5058-12.828-20.477-23.378-26.103-38.016-5.055-11.463-12.474-21.543-16.772-33.341-5.2754-12.671-17.181-21.134-21.861-34.135-3.7155-6.3228-10.948-10.12-12.359-17.801-2.781-11.809-10.729-21.173-15.456-32.162-8.8179-18.393-18.328-36.468-28.288-54.24-5.4577-12.438-12.422-23.884-20.622-34.649-4.3266-8.4197-5.0251-18.742-12.014-25.634-6.6283-14.587-15.117-28.291-21.656-42.875-2.615-8.1524-6.3735-16.032-12.254-22.266-4.1483-7.9072-8.0813-16.342-15.047-22.119-4.4884-8.5999-6.3033-18.459-12.42-26.225-4.6139-6.1798-7.4294-13.34-9.2443-20.717-7.6355-17.234-18.25-32.95-25.95-50.175-20.719-40.59-40.951-81.459-60.684-122.51-4.5569-12.702-11.445-24.307-17.428-36.342-10.435-14.705-14.668-33.135-26.237-47.227-7.5877-11.472-14.717-23.24-22.685-34.414-5.1928-8.31-9.3071-17.347-14.514-25.508-6.6444-8.0069-10.968-17.664-16.948-26.215-6.553-10.623-12.675-21.656-17.14-33.273-8.0323-9.8258-18.641-18.369-22.076-31.143-5.1917-11.458-12.733-21.745-18.586-32.889-4.7352-5.0543-10.392-9.9903-11.301-17.312-4.9083-13.857-15.422-24.847-20.453-38.646-3.5447-4.4425-7.6179-8.6757-10.57-13.434-8.3092-6.0488-10.517-16.828-16.075-24.939-2.0271-6.9586-7.7332-11.628-10.536-18.319-4.9896-8.3928-12.464-15.113-15.984-24.428-7.2571-9.1512-13.297-19.264-22.166-26.979-10.166-11.299-15.927-26.954-30.024-34.275-10.534-6.7233-15.412-18.713-24.627-26.789-7.8215-7.8332-11.893-18.551-21.028-25.131-6.5178-5.9579-15.799-9.4026-19.101-18.261-2.2548-6.2233-7.3403-10.225-12.045-14.446-21.148-22.178-39.606-46.865-62.445-67.381-5.7849-5.3684-14.142-7.2369-18.754-13.893-5.281-3.2494-12.515-2.8864-18.607-3.7012-0.7923-0.0301-1.5843-0.0345-2.377-0.0176zm425.71 139.2c-8.0673 8.403-12.083 20.11-10.361 31.621 0.5851 21.17 3.9646 42.767 12.191 62.309 1.0992 6.0673 1.2357 12.184 3.9629 17.879 2.4318 6.1984 0.3357 13.563 5.3496 18.789 6.3231 9.7735 4.575 22.889 12.228 32.105 3.6952 10.584 3.9156 21.933 8.0961 32.328 4.2544 17.24 9.6911 34.197 16.703 50.51 2.1407 8.1095 2.354 16.571 6.1562 24.229 3.2667 7.9379 2.1797 16.843 6.5852 24.397 4.0186 8.4608 4.4654 17.842 9.1316 25.98 3.246 6.745 5.0573 14.209 5.0898 21.607 3.119 6.1619 4.5955 12.939 6.8457 19.33 4.4642 7.8213 8.5885 16.005 9.9174 25.029 5.9173 22.769 22.584 39.937 34.46 59.622 8.0641 6.9622 13.486 16.148 19.805 24.537 7.0988 7.0677 13.675 14.671 19.5 22.846 11.011 12.22 22.867 23.814 31.522 37.93 4.9636 5.4464 8.7848 12.075 14.928 16.512 10.143 10.138 17.74 22.606 27.23 33.164 9.6714 6.0662 12.416 18.545 21.71 25.02 6.7274 8.3212 12.416 17.601 20.728 24.372 9.1822 14.12 20.037 27.053 31.822 39.063 5.2294 7.1742 9.6212 15.177 16.746 20.682 4.8307 6.4778 10.027 12.689 16.16 17.891 5.5424 4.6467 11.2 9.529 13.458 16.686 2.9585 6.5252 7.735 11.594 12.878 16.285 3.5197 6.1122 6.2253 13.32 12.807 16.783 13.649 13.346 22.419 30.876 36.449 43.858 6.2871 9.6558 13.561 18.718 22.08 26.442 4.9504 7.4626 10.766 14.208 17.186 20.434 6.1614 8.1108 11.036 17.026 19.193 23.27 8.4517 9.0751 13.462 20.938 23.356 28.699 7.7555 9.2241 14.23 19.512 22.92 27.861 8.3908 10.754 16.208 22.043 26.057 31.535 7.6949 9.7742 13.684 21.234 24.022 28.6 4.8917 5.5482 6.115 14.038 13.356 17.471 6.1199 4.5289 8.5505 12.917 16.303 15.221 11.766 4.5263 14.903 17.963 19.436 28.197 3.3052 6.7614 9.8626 10.959 13.109 17.844 5.9866 9.8415 14.168 17.976 21.327 26.871 6.4667 9.3611 7.9477 21.853 16.312 29.74 7.0913 3.8658 9.2897 12.028 11.678 19.096 4.2937 7.7285 11.303 13.549 15.016 21.699 7.1726 13.339 18.605 23.791 25.735 37.235 5.0047 8.8098 9.8066 17.696 16.891 25.048 8.9186 9.9243 9.3468 24.023 14.898 35.466 9.5227 11.049 10.464 26.395 18.06 38.5 3.7143 6.112 4.1959 13.334 6.3164 19.938 4.7653 7.7968 4.8462 17.141 7.7473 25.639 3.6279 12.451 4.4513 25.396 6.0828 38.166 2.1629 8.4236 3.9267 16.989 5.1289 25.551 3.4083 8.0941 7.2182 16.642 5.3763 25.616-1.0557 9.2904 1.9695 18.108 5.4783 26.505 2.5934 6.5425 3.4208 14.164 6.8603 20.091 5.4056 4.8375 10.243 10.586 17.358 12.695 9.5495 6.9836 18.593 14.718 28.513 21.071 12.592 10.047 25.554 24.307 42.912 23.555 31.532-2.2342 58.087-21.834 88.398-28.977 8.4047-3.1156 17.044-6.6492 26.018-7.0234 9.3059-7.4995 5.4666-20.55 4.7773-30.676-1.4346-9.619-1.8081-20.031 3.1516-28.74 5.3909-22.534 1.0681-46.017 4.3048-68.941 2.4258-25.992 5.3712-52.596-1.3743-78.165-0.4506-7.2086 2.1036-14.599-1.1153-21.514-0.9913-7.6566-3.1987-14.974-6.2461-22.012-1.5763-7.4364-1.9224-15.379-7.4746-21.236-4.85-6.4291-6.9728-14.269-7.8437-22.088-3.2767-8.3403-10.742-14.232-15.975-21.131-7.2349-3.4474-11.811-10.278-14.322-17.656-6.5887-12.68-18.184-21.628-27.129-32.352-4.5519-3.6787-7.8251-8.5693-11.002-13.285-5.862-4.6195-12.367-8.6963-16.268-15.26-11.725-13.039-25.083-24.741-35.629-38.745-12.852-9.9447-23.028-22.795-34.873-33.85-8.0764-8.2646-16.11-16.615-24.004-25.002-7.3724-2.9185-6.6641-13.747-14.666-15.74-8.042-4.8183-10.608-15.362-19.52-19.166-5.2453-4.3158-7.5209-11.373-13.93-14.428-5.336-3.246-8.5096-8.6352-11.606-13.736-5.9505-4.2927-13.851-5.9238-18.404-12.17-4.9903-5.1549-3.54-13.614-9.2363-17.965-19.246-16.568-35.106-36.572-52.506-54.957-8.6034-7.0452-18.271-13.158-24.879-22.272-11.618-11.11-21.415-23.906-33.58-34.455-9.1978-9.842-18.916-19.068-28.149-28.839-12.406-11.23-21.976-25.164-34.427-36.372-4.7649-7.5475-12.196-12.783-16.669-20.558-5.5421-8.1551-13.139-14.562-19.689-21.76-1.955-4.1879-4.8421-7.677-8.8398-9.9316-8.0986-7.9792-10.507-19.94-18.785-27.829-13.474-16.728-24.319-35.337-37-52.612-7.5453-8.8209-14.784-18.063-20.032-28.403-5.1341-3.8063-10.317-8.0922-12.188-14.562-1.7136-6.6003-4.8345-12.592-9.4219-17.594-6.9192-10.203-15.482-19.445-22.082-29.715-3.6799-10.808-13.869-17.78-17.824-28.543-3.6099-5.3597-7.8389-10.572-11.652-15.637-2.9646-5.765-9.3934-8.9244-11.611-15.312-6.0107-12.199-12.448-24.294-21.785-34.318-4.4768-6.5353-6.7691-14.322-12.648-19.923-4.975-4.7439-6.6685-11.592-10.828-16.811-4.73-4.1129-8.906-8.9367-10.369-15.184-3.905-6.4642-8.4737-12.552-10.471-19.955-7.4472-17.296-22.056-31.101-27.644-49.494-7.4976-16.011-12.653-33.024-20.482-48.838-2.3999-5.6734-2.0813-12.123-2.2871-17.924-7.1359-13.159-4.1524-28.804-9.1387-42.549-1.3553-8.5534-5.2417-16.74-4.6263-25.381-0.6532-9.1416-7.3882-16.457-7.5458-25.751-2.5453-9.5453-2.5844-19.698-6.5623-28.86-1.5822-7.7561-3.3426-15.36-7.1309-22.246-3.3621-11.186-4.7793-22.87-8.8359-33.881-2.541-6.3843-3.7277-15.47-10.732-18.576-9.3704-2.9348-19.308 1.7156-28.752-1.2514-31.358-3.1026-62.842-6.7787-93.073-16.07-20.013-5.8505-39.681-12.852-59.632-18.763-5.2957 0.37999-10.192-3.7788-14.957-4.4297zm1269.7 1237.2c-6.6162 1.4443-8.065 9.0133-12.547 13.008-3.2306 3.6261-4.1709 8.4589-4.5683 13.01-3.982 11.231-5.6892 23.181-8.084 34.772 0.1766 10.39-0.1205 20.81-2.0586 31.01-2.352 26.693-0.8104 53.59-1.4596 80.377 0.2454 17.782-0.478 35.816 1.4967 53.418 3.0135 8.335 3.4832 17.575 1.2422 26.039 2.367 7.6952 2.8506 15.639 2.4082 23.629-0.7735 6.3381 2.9313 11.648 7.7978 15.272 10.605 10.561 25.246 15.777 38.903 20.999 31.728 11.536 65.931 12.769 99.314 10.607-1.0841-10.225-3.4548-20.148-7.5084-29.588-13.937-48.417-34.536-94.445-54.644-140.51-6.4838-20.952-18.967-39.66-23.922-61.184-6.1687-21.257-15.291-41.5-21.803-62.641-2.38-8.1622-10.028-13.468-11.389-22.043-0.7885-2.0161-1.3136-5.1124-3.1797-6.1738z" transform="matrix(.99452 0 0 1.0941 10.844 -145.76)" filter="url(#b)" fill="#999"/>
</g>
<path d="m400.6 293.45c0-40 120-40 120 0v4e3h-120v-4e3z" fill="url(#a)"/>
</g>
</svg>
